<svg width="99" height="66" viewBox="0 0 99 66" fill="none" xmlns="http://www.w3.org/2000/svg">
<g clip-path="url(#clip0)">
<path d="M97.9899 28.692C97.1757 27.1091 95.908 25.8049 94.3489 24.946L94.3649 24.936L46.6869 0L0.00390625 23.998L0.152906 24.082L47.5039 48.918C51.8989 51.223 53.6079 56.684 51.3239 61.115C50.6029 62.5103 49.528 63.6917 48.2069 64.541L48.1449 64.622L48.1039 64.652L95.8849 39.673C98.9649 37.007 99.9449 32.476 97.9899 28.692Z" fill="#EBECED"/>
<path d="M47.504 48.918L0 24.001V44.391L39.235 64.971C40.5077 65.6405 41.924 65.9908 43.362 65.992C45.0091 65.9903 46.6239 65.5344 48.0286 64.6743C49.4334 63.8142 50.5736 62.5833 51.324 61.117C53.607 56.684 51.898 51.223 47.504 48.918Z" fill="#BDC3C7"/>
<path d="M18.3701 22.3061L22.9441 24.6111L15.2561 23.8751L12.8691 25.0771L21.1391 29.2411L23.5411 28.0311L19.0021 25.7441L26.6391 26.4731L29.0471 25.2601L20.7771 21.0961L18.3701 22.3061ZM31.4281 22.1731L29.7971 21.3531L33.7741 19.3511L32.0861 18.5001L28.1091 20.5021L26.7971 19.8411L31.0821 17.6831L29.3161 16.7931L22.4681 20.2411L30.7381 24.4051L37.7111 20.8931L35.8381 19.9511L31.4281 22.1731ZM39.1221 11.8541L42.8701 14.6251L36.9641 12.9421L34.5461 14.1601L37.8981 17.1361L32.3951 15.2441L29.9681 16.4661L40.0751 19.7041L42.5811 18.4421L38.8191 15.0921L45.4751 16.9841L47.9811 15.7211L41.5361 10.6391L39.1221 11.8541ZM56.0321 10.4351C55.8781 10.0621 55.5361 9.74307 55.0051 9.47607C54.5551 9.24707 54.0361 9.09907 53.4521 9.02607C52.8661 8.95307 52.2101 8.97607 51.4781 9.09507C50.7481 9.21407 49.7061 9.49307 48.3481 9.93507C47.8031 10.1161 47.4141 10.2081 47.1861 10.2141C46.9571 10.2241 46.7771 10.1941 46.6451 10.1281C46.4631 10.0371 46.3861 9.92307 46.4111 9.78307C46.4361 9.64307 46.5981 9.49907 46.8931 9.34807C47.2358 9.17134 47.6121 9.06942 47.9971 9.04907C48.3701 9.03007 48.7751 9.10007 49.2121 9.25407L51.4811 7.97107C50.5181 7.59207 49.5641 7.44407 48.6191 7.52607C47.6701 7.60707 46.6681 7.91407 45.6111 8.44607C44.7491 8.88007 44.1781 9.27507 43.9011 9.63407C43.6241 9.99107 43.5491 10.3281 43.6811 10.6421C43.8131 10.9561 44.0901 11.2221 44.5161 11.4351C45.1621 11.7611 45.9351 11.9091 46.8321 11.8751C47.7281 11.8451 48.8611 11.6101 50.2331 11.1731C51.0671 10.9041 51.6641 10.7651 52.0201 10.7571C52.3761 10.7461 52.6661 10.7961 52.8761 10.9031C53.1041 11.0161 53.2001 11.1671 53.1751 11.3521C53.1511 11.5371 52.9521 11.7211 52.5891 11.9061C52.084 12.1567 51.5203 12.2656 50.9581 12.2211C50.5891 12.1981 50.1841 12.1001 49.7331 11.9281L47.4561 13.2291C48.3601 13.6141 49.3551 13.8051 50.4371 13.8051C51.5191 13.8051 52.7651 13.4511 54.1701 12.7431C54.9721 12.3401 55.5191 11.9471 55.8141 11.5651C56.1161 11.1871 56.1861 10.8081 56.0321 10.4351Z" fill="#7E8B8C"/>
<path d="M64.223 15.2451L27.79 33.5931L30.456 34.9361L66.891 16.5871L64.223 15.2451ZM34.01 36.7251L42.008 40.7511L52.67 35.3821L44.672 31.3551L34.01 36.7251ZM51.782 30.4591L73.107 19.7201L70.441 18.3771L49.116 29.1171L51.782 30.4591ZM75.773 21.0621L54.447 31.8021L57.113 33.1461L78.439 22.4061L75.773 21.0621Z" fill="#BDC2C6"/>
<path d="M42.028 55.0289L0 32.5969V34.8889L41.123 56.8349C41.2617 56.9095 41.4166 56.9486 41.574 56.9489C41.928 56.9489 42.271 56.7489 42.447 56.3999C42.5679 56.1616 42.5918 55.8856 42.5137 55.63C42.4356 55.3744 42.2615 55.159 42.028 55.0289Z" fill="#7E8B8C"/>
</g>
<defs>
<clipPath id="clip0">
<rect width="99" height="65.991" fill="white"/>
</clipPath>
</defs>
</svg>
