<svg id="Calque_1" xmlns="http://www.w3.org/2000/svg" viewBox="0 0 302 84">
    <defs>
        <style>.cls-1{fill:#fff;}.cls-2{fill:#fbbc31;}</style>
    </defs>
    <path
            class="cls-1"
            d="M52.65,28.05a24.73,24.73,0,0,1,9.65,9.7A29.34,29.34,0,0,1,65.8,52.3a29.34,29.34,0,0,1-3.5,14.55,24.73,24.73,0,0,1-9.65,9.7A27.42,27.42,0,0,1,39,80q-11.1,0-16.9-7v6.2H7.2V5H22.8V31.1q5.9-6.5,16.2-6.5A27.42,27.42,0,0,1,52.65,28.05Zm-6.5,35.1Q50,59.1,50,52.3T46.15,41.45A13,13,0,0,0,36.3,37.4a13,13,0,0,0-9.85,4.05q-3.86,4-3.85,10.85t3.85,10.85A13,13,0,0,0,36.3,67.2,13,13,0,0,0,46.15,63.15Z"
    />
    <path
            class="cls-1"
            d="M72,15.4a8.11,8.11,0,0,1-2.7-6.2A8.11,8.11,0,0,1,72,3,9.87,9.87,0,0,1,79,.5a10.15,10.15,0,0,1,7,2.4,7.7,7.7,0,0,1,2.7,6A8.49,8.49,0,0,1,86,15.35a9.79,9.79,0,0,1-7,2.55A9.87,9.87,0,0,1,72,15.4Zm-.8,10H86.8V79.2H71.2Z"
    />
    <path
            class="cls-1"
            d="M145.15,30.6q6.15,6,6.15,17.8V79.2H135.7V50.8q0-6.4-2.8-9.55t-8.1-3.15a12.41,12.41,0,0,0-9.4,3.65q-3.51,3.64-3.5,10.85V79.2H96.3V25.4h14.9v6.3a20.53,20.53,0,0,1,7.7-5.25A26.86,26.86,0,0,1,129,24.6Q139,24.6,145.15,30.6Z"
    />
    <path
            class="cls-1"
            d="M171.55,76.45a26.54,26.54,0,0,1-10.7-9.85A26.85,26.85,0,0,1,157,52.3,26.85,26.85,0,0,1,160.85,38a26.54,26.54,0,0,1,10.7-9.85A33,33,0,0,1,187,24.6a29.94,29.94,0,0,1,14.85,3.55A21.12,21.12,0,0,1,211.1,38.3L199,44.8q-4.2-7.39-12.1-7.4a13.66,13.66,0,0,0-10.1,4q-4,4-4,10.9t4,10.9a13.66,13.66,0,0,0,10.1,4q8,0,12.1-7.4l12.1,6.6a21.51,21.51,0,0,1-9.25,10A29.64,29.64,0,0,1,187,80,33,33,0,0,1,171.55,76.45Z"
    />
    <path
            class="cls-1"
            d="M263.55,30.6q6.15,6,6.15,17.8V79.2H254.1V50.8q0-6.4-2.8-9.55t-8.1-3.15a12.41,12.41,0,0,0-9.4,3.65q-3.51,3.64-3.5,10.85V79.2H214.7V5h15.6V31a20.59,20.59,0,0,1,7.5-4.75,27.11,27.11,0,0,1,9.6-1.65Q257.39,24.6,263.55,30.6Z"
    />
    <path
            class="cls-2"
            d="M277.8,77.2a9.49,9.49,0,0,1-2.8-7,9.12,9.12,0,0,1,2.8-7,10.31,10.31,0,0,1,13.8,0,9.15,9.15,0,0,1,2.8,7,9.53,9.53,0,0,1-2.8,7,9.9,9.9,0,0,1-13.8,0Z"
    />
</svg>